<svg width="17" height="14" viewBox="0 0 17 14" fill="none" xmlns="http://www.w3.org/2000/svg">
<path d="M10.125 4H9V7.75L12.21 9.655L12.75 8.7475L10.125 7.1875V4ZM9.75 0.25C7.95979 0.25 6.2429 0.961159 4.97703 2.22703C3.71116 3.4929 3 5.20979 3 7H0.75L3.72 10.0225L6.75 7H4.5C4.5 5.60761 5.05312 4.27226 6.03769 3.28769C7.02226 2.30312 8.35761 1.75 9.75 1.75C11.1424 1.75 12.4777 2.30312 13.4623 3.28769C14.4469 4.27226 15 5.60761 15 7C15 8.39239 14.4469 9.72774 13.4623 10.7123C12.4777 11.6969 11.1424 12.25 9.75 12.25C8.3025 12.25 6.99 11.6575 6.045 10.705L4.98 11.77C5.6036 12.4005 6.34663 12.9003 7.16565 13.2403C7.98466 13.5802 8.86323 13.7535 9.75 13.75C11.5402 13.75 13.2571 13.0388 14.523 11.773C15.7888 10.5071 16.5 8.79021 16.5 7C16.5 5.20979 15.7888 3.4929 14.523 2.22703C13.2571 0.961159 11.5402 0.25 9.75 0.25Z" fill="black" fill-opacity="0.5"/>
</svg>
