<svg width="30" height="30" viewBox="0 0 30 30" fill="none" xmlns="http://www.w3.org/2000/svg">
<path d="M7.5 2.5C6.1125 2.5 5 3.6125 5 5V25C5 25.663 5.26339 26.2989 5.73223 26.7678C6.20107 27.2366 6.83696 27.5 7.5 27.5H12.5V25.1125L15.1125 22.5H7.5V20H17.6125L20.1125 17.5H7.5V15H22.6125L25 12.6125V10L17.5 2.5H7.5ZM16.25 4.375L23.125 11.25H16.25V4.375ZM25.1875 16.25C25.095 16.248 25.003 16.2646 24.9171 16.299C24.8312 16.3334 24.7531 16.3847 24.6875 16.45L23.4125 17.725L26.025 20.325L27.3 19.0625C27.5625 18.7875 27.5625 18.3375 27.3 18.075L25.675 16.45C25.6111 16.3859 25.5351 16.3352 25.4514 16.3009C25.3677 16.2665 25.278 16.2492 25.1875 16.25ZM22.675 18.4625L15 26.15V28.75H17.6L25.2875 21.0625L22.675 18.4625Z" fill="black"/>
</svg>
