<svg width="20" height="23" viewBox="0 0 20 23" fill="none" xmlns="http://www.w3.org/2000/svg">
<path d="M17.7916 20.8751H6.33325V6.29175H17.7916V20.8751ZM17.7916 4.20841H6.33325C5.78072 4.20841 5.25081 4.42791 4.86011 4.81861C4.46941 5.20931 4.24992 5.73921 4.24992 6.29175V20.8751C4.24992 21.4276 4.46941 21.9575 4.86011 22.3482C5.25081 22.7389 5.78072 22.9584 6.33325 22.9584H17.7916C18.3441 22.9584 18.874 22.7389 19.2647 22.3482C19.6554 21.9575 19.8749 21.4276 19.8749 20.8751V6.29175C19.8749 5.73921 19.6554 5.20931 19.2647 4.81861C18.874 4.42791 18.3441 4.20841 17.7916 4.20841ZM14.6666 0.041748H2.16659C1.61405 0.041748 1.08415 0.261241 0.693446 0.651942C0.302745 1.04264 0.083252 1.57255 0.083252 2.12508V16.7084H2.16659V2.12508H14.6666V0.041748Z" fill="black"/>
</svg>
