<svg id="Layer_1" data-name="Layer 1" xmlns="http://www.w3.org/2000/svg" viewBox="0 0 512 118.82"><defs><style>.cls-1{fill:#e85a50;}</style></defs><path d="M.05,103H8.62l0-54H0V34.46H33.65V49H25l0,19.19H58.7l0-19.19H50.15V34.46H83.8V49H75.23l0,54h8.57v14.59H50.2V103h8.57l-.09-20.34H24.9L25,103h8.7v14.59H0Z"/><path d="M147.72,59.92a46.12,46.12,0,0,0-2.65,10.23,83.43,83.43,0,0,0-.78,10.24l-.48,24.69h7.42l-.17,9.34-3.5,3.2H130.29l-1.75-11.77a24.46,24.46,0,0,1-6.32,9.21Q118,118.9,111,118.9a17.82,17.82,0,0,1-15-7.17,34,34,0,0,1-6.57-17.52,47.25,47.25,0,0,1,1.13-16A30.2,30.2,0,0,1,97.76,64.4q5.24-5.64,14.57-5.63,12.54,0,17.51,10.74c.25-1.62-.06.41.18-1.16a42.76,42.76,0,0,1,2.09-8.43ZM116.21,71.3q-6.15,0-8.41,6.47a33,33,0,0,0-1.41,14.52q1.47,14.07,9.67,14.07,5.23,0,8.43-5a23.89,23.89,0,0,0,3.74-10.62l.06-4.35q0-7.16-3.8-11.13C122,72.63,119.19,71.3,116.21,71.3Z"/><path d="M158.51,59.92h17.78l1.8,11a22,22,0,0,1,6.62-8.83,16.82,16.82,0,0,1,10.65-3.32,20.1,20.1,0,0,1,13.5,4.86q5.7,4.86,5.49,15.1l-.43,26.35h7.42l-.17,9.34-3.5,3.2H198l.55-32.5q.1-7.41-2.2-10.62t-7.06-3.2c-3.58,0-6.24,1.11-8,3.33a15.46,15.46,0,0,0-2.91,8.83l-.51,34.16H162l.75-45.16h-8.06l.2-9.09Z"/><path d="M255.1,33.05l3.6-3.45h22.77l-1.27,75.48h7.42l-.17,9.34-3.51,3.2H266.67L265.08,105a25.66,25.66,0,0,1-6.84,9.79q-4.61,4.16-11.9,4.16-9.48,0-14.7-7.17a34.58,34.58,0,0,1-6.28-17.14,46.44,46.44,0,0,1,1.22-16.31,30.3,30.3,0,0,1,7.5-13.88q5.43-5.64,14.64-5.63,11,0,16.24,8.44l.43-25.08H254.9ZM252.59,71.3q-6.14,0-8.67,6.4a31.85,31.85,0,0,0-1.61,15.1,24.6,24.6,0,0,0,2.82,9.79,7,7,0,0,0,6.41,3.77q5.11,0,8.65-4.8a23,23,0,0,0,4.35-10.3l.06-6.78q-.54-6.27-4.22-9.72A11.35,11.35,0,0,0,252.59,71.3Z"/><path d="M292,92.8a36,36,0,0,1,5.2-23.61q6.57-10.42,22.57-10.42,13.18,0,20.11,7.54T348,85.51q1.58,15-6.22,24.18t-22,9.21q-11.77,0-19.13-6.72T292,92.8Zm17.13-1.41a28.37,28.37,0,0,0,3,10.94q2.28,4,7.91,4,7.29,0,9.6-6A30.85,30.85,0,0,0,331,86Q329.49,71.3,319.38,71.3,307,71.3,309.08,91.39Z"/><path class="cls-1" d="M378.88,69l-3.6,3.46h-3.46l11.33,26.22h.77A73.74,73.74,0,0,0,391,84.48a29.18,29.18,0,0,0,1.35-12.66,34,34,0,0,0-3.8-11.9h17.78a41.7,41.7,0,0,1,1.45,15.61q-.72,8.44-6.88,17.91-2.75,4.35-8.39,11.51t-10.69,12.67h-7l-20-45.16h-6l.2-9.09,3.6-3.45h26.49Z"/><path d="M442.17,106.36c4.35,0,7-1.21,8.06-3.65a30.85,30.85,0,0,0,1.95-5.82l13.19,2.56q-.48,7.56-6.7,13.5t-17.61,6a28.89,28.89,0,0,1-18.17-6.14q-8-6.15-9.37-19.71-1.45-13.81,5.66-24t22-10.23q9.21,0,15.55,4.35a15.45,15.45,0,0,1,7.1,11.51,13.72,13.72,0,0,1-3.33,10.94q-4,4.55-15.39,7A126.79,126.79,0,0,1,431,94.72a18.38,18.38,0,0,0,3.46,8.57Q436.92,106.37,442.17,106.36Zm-6.29-22.13q7.53-1.41,9.59-3.71a6.2,6.2,0,0,0,1.79-4.87,5.43,5.43,0,0,0-2.52-4.47,8.89,8.89,0,0,0-4.61-1.28,7.57,7.57,0,0,0-7.5,4.67,26.64,26.64,0,0,0-2.29,10.55c1-.17,2-.32,2.9-.45S435,84.4,435.88,84.23Z"/><path d="M474.26,59.92h16.51l2.56,15.86a46.9,46.9,0,0,1,4.1-11.51q2.81-5.5,8.06-5.5a10.24,10.24,0,0,1,6.51,2.3l-.77,17a15.4,15.4,0,0,0-6.86-1.92q-8.7,0-9.8,9l-.72,20h11l-.2,9.08-3.6,3.46H470.22l.2-9.08,3.6-3.46h3.84l.54-32.62h-7.94l.2-9.09Z"/><path class="cls-1" d="M386.62,56.22c-13.82-17.73-40-35.08-74.36-40.43-53.44-8.31-122.67-2.41-162.93,40.43H133.87c10.93-21.08,43.23-39.72,78-48.61a253.69,253.69,0,0,1,99.59-4.75c20.95,3.25,39.45,9.07,55,17.28s31.67,22.65,38.33,36.08Z"/></svg>