<svg width="26" height="24" viewBox="0 0 26 24" fill="none" xmlns="http://www.w3.org/2000/svg">
<path d="M20.5 0.75H5.5V5.75H20.5V0.75ZM21.75 12C21.4185 12 21.1005 11.8683 20.8661 11.6339C20.6317 11.3995 20.5 11.0815 20.5 10.75C20.5 10.4185 20.6317 10.1005 20.8661 9.86612C21.1005 9.6317 21.4185 9.5 21.75 9.5C22.0815 9.5 22.3995 9.6317 22.6339 9.86612C22.8683 10.1005 23 10.4185 23 10.75C23 11.0815 22.8683 11.3995 22.6339 11.6339C22.3995 11.8683 22.0815 12 21.75 12ZM18 20.75H8V14.5H18V20.75ZM21.75 7H4.25C3.25544 7 2.30161 7.39509 1.59835 8.09835C0.895088 8.80161 0.5 9.75544 0.5 10.75V18.25H5.5V23.25H20.5V18.25H25.5V10.75C25.5 9.75544 25.1049 8.80161 24.4017 8.09835C23.6984 7.39509 22.7446 7 21.75 7Z" fill="black"/>
</svg>
