<svg width="30" height="30" viewBox="0 0 30 30" fill="none" xmlns="http://www.w3.org/2000/svg">
<path d="M10.8333 0C13.7065 0 16.462 1.14137 18.4937 3.17301C20.5253 5.20465 21.6667 7.96016 21.6667 10.8333C21.6667 13.5167 20.6833 15.9833 19.0667 17.8833L19.5167 18.3333H20.8333L29.1667 26.6667L26.6667 29.1667L18.3333 20.8333V19.5167L17.8833 19.0667C15.9176 20.7446 13.4178 21.6665 10.8333 21.6667C7.96016 21.6667 5.20465 20.5253 3.17301 18.4937C1.14137 16.462 0 13.7065 0 10.8333C0 7.96016 1.14137 5.20465 3.17301 3.17301C5.20465 1.14137 7.96016 0 10.8333 0ZM10.8333 3.33333C6.66667 3.33333 3.33333 6.66667 3.33333 10.8333C3.33333 15 6.66667 18.3333 10.8333 18.3333C15 18.3333 18.3333 15 18.3333 10.8333C18.3333 6.66667 15 3.33333 10.8333 3.33333Z" fill="black"/>
</svg>
