<svg width="23" height="27" viewBox="0 0 23 27" fill="none" xmlns="http://www.w3.org/2000/svg">
<path d="M5 13H15V15.5H5V13ZM7.5 23H2.5V3H11.25V9.25H17.5V13.125L20 10.625V8L12.5 0.5H2.5C1.83696 0.5 1.20107 0.763392 0.732233 1.23223C0.263392 1.70107 0 2.33696 0 3V23C0 23.663 0.263392 24.2989 0.732233 24.7678C1.20107 25.2366 1.83696 25.5 2.5 25.5H7.5V23ZM5 20.5H10.125L11.25 19.375V18H5V20.5ZM20.25 14.25C20.375 14.25 20.625 14.375 20.75 14.5L22.375 16.125C22.625 16.375 22.625 16.875 22.375 17.125L21.125 18.375L18.5 15.75L19.75 14.5C19.875 14.375 20 14.25 20.25 14.25ZM20.25 19.125L12.625 26.75H10V24.125L17.625 16.5L20.25 19.125Z" fill="black"/>
</svg>
