<svg width="177" height="30" viewBox="0 0 177 30" fill="none" xmlns="http://www.w3.org/2000/svg">
<path d="M17.8548 0H7.65207C6.24919 0 5.10138 1.125 5.10138 2.5V22.5C5.10138 23.875 6.24919 25 7.65207 25H22.9562C24.3591 25 25.5069 23.875 25.5069 22.5V7.5L17.8548 0ZM22.9562 22.5H7.65207V2.5H16.5795V8.75H22.9562V22.5ZM2.55069 5V27.5H22.9562V30H2.55069C1.14781 30 0 28.875 0 27.5V5H2.55069ZM10.2028 12.5V15H20.4055V12.5H10.2028ZM10.2028 17.5V20H16.5795V17.5H10.2028Z" fill="black"/>
<path d="M37.6444 28.75H42.3509V19.7372H51.9051V28.75H56.6007V6.93182H51.9051V15.9339H42.3509V6.93182H37.6444V28.75Z" fill="black"/>
<path d="M64.6345 29.059C67.1019 29.059 68.6997 28.0043 69.5149 26.4808H69.6453V28.75H74.0366V17.7131C74.0366 13.8139 70.6671 12.1733 66.9497 12.1733C62.9498 12.1733 60.3194 14.0483 59.6781 17.0312L63.9606 17.3722C64.2758 16.2855 65.265 15.4865 66.928 15.4865C68.5041 15.4865 69.4062 16.2642 69.4062 17.6065V17.6705C69.4062 18.7251 68.2649 18.8636 65.3628 19.1406C62.0585 19.4389 59.0911 20.5256 59.0911 24.1797C59.0911 27.4183 61.4498 29.059 64.6345 29.059ZM65.9606 25.9268C64.5367 25.9268 63.515 25.277 63.515 24.0305C63.515 22.7521 64.5911 22.1236 66.2215 21.8999C67.2323 21.7614 68.8845 21.527 69.4388 21.1648V22.9013C69.4388 24.6165 67.9932 25.9268 65.9606 25.9268Z" fill="black"/>
<path d="M81.7389 19.2898C81.7498 17.1804 83.0324 15.9446 84.902 15.9446C86.7606 15.9446 87.8802 17.1378 87.8693 19.1406V28.75H92.4997V18.331C92.4997 14.517 90.2171 12.1733 86.7389 12.1733C84.2607 12.1733 82.4672 13.3665 81.7172 15.2734H81.5216V12.3864H77.1086V28.75H81.7389V19.2898Z" fill="black"/>
<path d="M101.781 29.0163C104.476 29.0163 105.879 27.4929 106.52 26.1293H106.716V28.75H111.281V6.93182H106.661V15.1349H106.52C105.9 13.8033 104.563 12.1733 101.77 12.1733C98.107 12.1733 95.0092 14.9645 95.0092 20.5895C95.0092 26.0653 97.9765 29.0163 101.781 29.0163ZM103.248 25.4048C100.976 25.4048 99.7374 23.4233 99.7374 20.5682C99.7374 17.7344 100.955 15.7848 103.248 15.7848C105.498 15.7848 106.759 17.6491 106.759 20.5682C106.759 23.4872 105.476 25.4048 103.248 25.4048Z" fill="black"/>
<path d="M122.111 29.0696C127.176 29.0696 130.328 25.6712 130.328 20.6321C130.328 15.5611 127.176 12.1733 122.111 12.1733C117.046 12.1733 113.893 15.5611 113.893 20.6321C113.893 25.6712 117.046 29.0696 122.111 29.0696ZM122.132 25.554C119.796 25.554 118.6 23.4553 118.6 20.6001C118.6 17.745 119.796 15.6357 122.132 15.6357C124.426 15.6357 125.622 17.745 125.622 20.6001C125.622 23.4553 124.426 25.554 122.132 25.554Z" fill="black"/>
<path d="M147.816 12.3864H142.913L139.457 24.0945H139.283L135.816 12.3864H130.924L136.761 28.75H141.979L147.816 12.3864Z" fill="black"/>
<path d="M156.705 29.0696C160.836 29.0696 163.618 27.0987 164.271 24.0625L159.988 23.7855C159.521 25.032 158.325 25.6818 156.782 25.6818C154.466 25.6818 152.999 24.1797 152.999 21.7401V21.7294H164.368V20.483C164.368 14.9219 160.934 12.1733 156.521 12.1733C151.608 12.1733 148.423 15.593 148.423 20.6428C148.423 25.831 151.564 29.0696 156.705 29.0696ZM152.999 18.9169C153.097 17.0526 154.542 15.5611 156.597 15.5611C158.608 15.5611 159.999 16.9673 160.01 18.9169H152.999Z" fill="black"/>
<path d="M166.87 28.75H171.5V19.4922C171.5 17.4787 173 16.0938 175.044 16.0938C175.685 16.0938 176.565 16.2003 177 16.3388V12.3118C176.587 12.2159 176.011 12.152 175.544 12.152C173.674 12.152 172.141 13.2173 171.533 15.2415H171.359V12.3864H166.87V28.75Z" fill="black"/>
</svg>
